<svg width="4490" height="749" viewBox="0 0 4490 749" fill="none" xmlns="http://www.w3.org/2000/svg">
<path d="M873 540L1008.5 186.5H1083L1218 540H1150.5L1127 474.5H964L940 540H873ZM984 418H1106.5L1045.5 249.5L984 418ZM1372.12 660.5C1352.79 660.5 1334.62 657.333 1317.62 651C1300.95 645 1286.79 635.333 1275.12 622C1263.79 609 1256.12 592.167 1252.12 571.5H1314.62C1316.62 579.5 1320.62 586 1326.62 591C1332.62 596 1339.62 599.5 1347.62 601.5C1355.95 603.833 1364.45 605 1373.12 605C1389.45 605 1402.29 601.667 1411.62 595C1421.29 588.333 1428.12 579.167 1432.12 567.5C1436.12 556.167 1438.12 543.667 1438.12 530V505C1432.12 514.667 1424.45 522.333 1415.12 528C1406.12 533.667 1396.45 537.667 1386.12 540C1376.12 542 1366.12 543 1356.12 543C1328.79 543 1306.45 537 1289.12 525C1272.12 513 1259.62 497 1251.62 477C1243.62 456.667 1239.62 434.333 1239.62 410C1239.62 384.667 1243.95 361.667 1252.62 341C1261.62 320 1274.95 303.333 1292.62 291C1310.62 278.667 1333.12 272.5 1360.12 272.5C1375.79 272.5 1390.45 275.333 1404.12 281C1418.12 286.333 1429.79 294.5 1439.12 305.5L1443.12 276.5H1499.62V517C1499.62 546.667 1495.29 572.167 1486.62 593.5C1478.29 615.167 1464.79 631.667 1446.12 643C1427.45 654.667 1402.79 660.5 1372.12 660.5ZM1368.62 489C1384.29 489 1397.29 485.333 1407.62 478C1417.95 470.333 1425.79 460.333 1431.12 448C1436.45 435.333 1439.12 421.667 1439.12 407C1439.12 392 1436.45 378.5 1431.12 366.5C1426.12 354.5 1418.45 345 1408.12 338C1398.12 331 1385.12 327.5 1369.12 327.5C1352.12 327.5 1338.62 331.333 1328.62 339C1318.62 346.667 1311.29 356.833 1306.62 369.5C1302.29 381.833 1300.12 395 1300.12 409C1300.12 423.667 1302.45 437.167 1307.12 449.5C1311.79 461.5 1319.12 471.167 1329.12 478.5C1339.12 485.5 1352.29 489 1368.62 489ZM1676.7 543.5C1649.37 543.5 1626.04 537.833 1606.7 526.5C1587.7 515.167 1573.2 499.5 1563.2 479.5C1553.54 459.167 1548.7 435.667 1548.7 409C1548.7 382.333 1553.7 358.833 1563.7 338.5C1574.04 317.833 1588.7 301.667 1607.7 290C1627.04 278.333 1650.2 272.5 1677.2 272.5C1697.2 272.5 1714.7 276.167 1729.7 283.5C1744.7 290.5 1757.2 300.167 1767.2 312.5C1777.54 324.833 1785.2 338.833 1790.2 354.5C1795.2 370.167 1797.54 386.667 1797.2 404C1796.87 408 1796.54 412 1796.2 416C1795.87 419.667 1795.37 423.667 1794.7 428H1609.7C1610.7 439.667 1613.7 450.333 1618.7 460C1624.04 469.667 1631.37 477.333 1640.7 483C1650.37 488.667 1662.37 491.5 1676.7 491.5C1685.04 491.5 1693.04 490.5 1700.7 488.5C1708.37 486.167 1715.04 482.833 1720.7 478.5C1726.7 474.167 1730.7 468.667 1732.7 462H1793.7C1789.37 481 1781.37 496.5 1769.7 508.5C1758.04 520.5 1744.04 529.333 1727.7 535C1711.7 540.667 1694.7 543.5 1676.7 543.5ZM1610.7 382.5H1737.7C1737.7 371.5 1735.2 361.5 1730.2 352.5C1725.2 343.5 1718.04 336.5 1708.7 331.5C1699.7 326.167 1688.7 323.5 1675.7 323.5C1661.7 323.5 1650.04 326.333 1640.7 332C1631.37 337.667 1624.2 345 1619.2 354C1614.2 363 1611.37 372.5 1610.7 382.5ZM1845.81 540V276.5H1902.81L1906.31 310C1913.31 300.667 1921.48 293.333 1930.81 288C1940.15 282.667 1949.98 278.833 1960.31 276.5C1970.65 273.833 1980.31 272.5 1989.31 272.5C2014.31 272.5 2033.98 278 2048.31 289C2062.98 300 2073.31 314.667 2079.31 333C2085.31 351.333 2088.31 371.833 2088.31 394.5V540H2027.31V404.5C2027.31 394.833 2026.65 385.5 2025.31 376.5C2023.98 367.167 2021.31 358.833 2017.31 351.5C2013.65 344.167 2008.31 338.333 2001.31 334C1994.31 329.667 1984.98 327.5 1973.31 327.5C1958.98 327.5 1946.81 331.333 1936.81 339C1926.81 346.667 1919.31 357 1914.31 370C1909.31 382.667 1906.81 397.167 1906.81 413.5V540H1845.81ZM2250.62 543C2221.62 543 2200.45 535 2187.12 519C2173.78 503 2167.12 480.833 2167.12 452.5V330.5H2126.62V276.5H2167.12V202.5H2228.12V276.5H2308.12V330.5H2228.12V441C2228.12 449.667 2229.12 457.5 2231.12 464.5C2233.12 471.5 2236.78 477 2242.12 481C2247.45 485 2254.78 487.167 2264.12 487.5C2272.12 487.5 2278.95 486.167 2284.62 483.5C2290.28 480.833 2294.95 477.833 2298.62 474.5L2319.12 521C2312.78 526.333 2305.62 530.667 2297.62 534C2289.95 537.333 2282.12 539.667 2274.12 541C2266.12 542.333 2258.28 543 2250.62 543ZM2501.32 540V186.5H2634.32C2660.99 186.5 2683.99 190.667 2703.32 199C2722.99 207 2738.15 219.833 2748.82 237.5C2759.82 255.167 2765.32 278.333 2765.32 307C2765.32 334.333 2759.32 357.167 2747.32 375.5C2735.32 393.833 2718.99 407.667 2698.32 417C2677.65 426 2653.99 430.5 2627.32 430.5H2563.82V540H2501.32ZM2563.82 374.5H2626.32C2649.32 374.5 2667.82 369 2681.82 358C2695.82 347 2702.82 329.667 2702.82 306C2702.82 285.333 2696.99 269.833 2685.32 259.5C2673.65 248.833 2655.65 243.5 2631.32 243.5H2563.82V374.5ZM2814.56 540V186.5H2875.56V540H2814.56ZM3018.68 543.5C3006.35 543.5 2994.68 541.833 2983.68 538.5C2972.68 535.167 2962.85 530.333 2954.18 524C2945.51 517.333 2938.51 509.167 2933.18 499.5C2928.18 489.5 2925.68 477.833 2925.68 464.5C2925.68 447.5 2929.01 433.667 2935.68 423C2942.35 412 2951.35 403.667 2962.68 398C2974.35 392.333 2987.51 388.5 3002.18 386.5C3016.85 384.167 3032.18 383 3048.18 383H3099.68C3099.68 371.333 3097.85 361.333 3094.18 353C3090.51 344.333 3084.68 337.5 3076.68 332.5C3069.01 327.5 3059.01 325 3046.68 325C3038.68 325 3031.18 326 3024.18 328C3017.51 329.667 3011.68 332.5 3006.68 336.5C3002.01 340.167 2998.68 345 2996.68 351H2934.18C2936.51 337.333 2941.18 325.667 2948.18 316C2955.51 306 2964.35 297.833 2974.68 291.5C2985.35 285.167 2997.01 280.5 3009.68 277.5C3022.35 274.167 3035.18 272.5 3048.18 272.5C3086.51 272.5 3114.35 283.5 3131.68 305.5C3149.35 327.5 3158.18 358.333 3158.18 398V540H3104.18L3102.68 506C3095.01 517.333 3085.85 525.667 3075.18 531C3064.51 536.333 3054.18 539.667 3044.18 541C3034.18 542.667 3025.68 543.5 3018.68 543.5ZM3030.68 494C3044.01 494 3055.85 491.5 3066.18 486.5C3076.51 481.5 3084.68 474.5 3090.68 465.5C3097.01 456.5 3100.18 446.167 3100.18 434.5V426H3052.18C3044.18 426 3036.18 426.333 3028.18 427C3020.51 427.333 3013.51 428.667 3007.18 431C3000.85 433 2995.68 436.167 2991.68 440.5C2988.01 444.833 2986.18 451 2986.18 459C2986.18 467 2988.18 473.5 2992.18 478.5C2996.51 483.5 3002.01 487.333 3008.68 490C3015.68 492.667 3023.01 494 3030.68 494ZM3321.42 543C3292.42 543 3271.25 535 3257.92 519C3244.58 503 3237.92 480.833 3237.92 452.5V330.5H3197.42V276.5H3237.92V202.5H3298.92V276.5H3378.92V330.5H3298.92V441C3298.92 449.667 3299.92 457.5 3301.92 464.5C3303.92 471.5 3307.58 477 3312.92 481C3318.25 485 3325.58 487.167 3334.92 487.5C3342.92 487.5 3349.75 486.167 3355.42 483.5C3361.08 480.833 3365.75 477.833 3369.42 474.5L3389.92 521C3383.58 526.333 3376.42 530.667 3368.42 534C3360.75 537.333 3352.92 539.667 3344.92 541C3336.92 542.333 3329.08 543 3321.42 543ZM3446.46 540V330.5H3405.46V276.5H3446.46V251.5C3446.46 231.5 3449.46 215.167 3455.46 202.5C3461.46 189.5 3470.96 180 3483.96 174C3497.29 168 3514.29 165 3534.96 165H3573.96V219H3541.96C3532.96 219 3525.96 220.5 3520.96 223.5C3515.96 226.5 3512.29 231 3509.96 237C3507.96 242.667 3506.96 249.667 3506.96 258V276.5H3573.96V330.5H3506.96V540H3446.46ZM3727.54 543.5C3700.54 543.5 3677.21 538 3657.54 527C3638.21 516 3623.21 500.333 3612.54 480C3602.21 459.667 3597.04 435.833 3597.04 408.5C3597.04 380.833 3602.38 357 3613.04 337C3623.71 316.667 3638.71 300.833 3658.04 289.5C3677.38 278.167 3700.54 272.5 3727.54 272.5C3754.21 272.5 3777.21 278.167 3796.54 289.5C3815.88 300.833 3830.71 316.833 3841.04 337.5C3851.38 357.833 3856.54 381.833 3856.54 409.5C3856.54 436.5 3851.38 460.167 3841.04 480.5C3831.04 500.5 3816.38 516 3797.04 527C3777.71 538 3754.54 543.5 3727.54 543.5ZM3727.04 488C3743.71 488 3757.04 484.333 3767.04 477C3777.38 469.667 3784.88 460 3789.54 448C3794.21 436 3796.54 423 3796.54 409C3796.54 395 3794.21 381.833 3789.54 369.5C3784.88 357.167 3777.38 347.333 3767.04 340C3757.04 332.333 3743.71 328.5 3727.04 328.5C3710.38 328.5 3696.88 332.333 3686.54 340C3676.21 347.333 3668.71 357.167 3664.04 369.5C3659.38 381.5 3657.04 394.667 3657.04 409C3657.04 423 3659.38 436.167 3664.04 448.5C3669.04 460.5 3676.54 470.167 3686.54 477.5C3696.88 484.5 3710.38 488 3727.04 488ZM3905.38 540V276.5H3960.88L3964.38 311C3971.05 301 3978.55 293.333 3986.88 288C3995.55 282.333 4004.72 278.333 4014.38 276C4024.38 273.667 4034.38 272.5 4044.38 272.5C4048.05 272.5 4051.38 272.5 4054.38 272.5C4057.72 272.5 4060.38 272.667 4062.38 273V331H4046.38C4029.05 331 4014.38 334.333 4002.38 341C3990.38 347.667 3981.38 357.167 3975.38 369.5C3969.38 381.833 3966.38 397 3966.38 415V540H3905.38ZM4098.25 540V276.5H4154.25L4158.25 306.5C4164.92 297.5 4172.09 290.667 4179.75 286C4187.75 281 4195.92 277.5 4204.25 275.5C4212.92 273.5 4221.09 272.5 4228.75 272.5C4245.42 272.5 4259.59 275.833 4271.25 282.5C4283.25 289.167 4292.59 299.167 4299.25 312.5C4305.92 303.167 4313.42 295.667 4321.75 290C4330.09 284 4338.92 279.667 4348.25 277C4357.59 274 4367.42 272.5 4377.75 272.5C4398.09 272.5 4414.42 276.833 4426.75 285.5C4439.09 293.833 4448.09 305.5 4453.75 320.5C4459.42 335.167 4462.25 352 4462.25 371V540H4401.25V390.5C4401.25 383.833 4400.92 376.833 4400.25 369.5C4399.59 362.167 4397.75 355.333 4394.75 349C4392.09 342.667 4388.09 337.5 4382.75 333.5C4377.42 329.5 4369.92 327.5 4360.25 327.5C4350.59 327.5 4342.59 329.667 4336.25 334C4330.25 338 4325.25 343.5 4321.25 350.5C4317.59 357.167 4314.92 364.667 4313.25 373C4311.92 381 4311.25 389 4311.25 397V540H4250.25V390C4250.25 383.667 4249.75 377 4248.75 370C4248.09 362.667 4246.42 355.833 4243.75 349.5C4241.42 342.833 4237.42 337.5 4231.75 333.5C4226.42 329.5 4218.92 327.5 4209.25 327.5C4195.25 327.5 4184.59 331.333 4177.25 339C4170.25 346.667 4165.42 356 4162.75 367C4160.42 378 4159.25 388.5 4159.25 398.5V540H4098.25Z" fill="black"/>
<path d="M699.999 180.531C699.999 173.352 696.151 166.724 689.917 163.163L437.545 19.0492C424.232 11.4467 407.667 21.0347 407.627 36.3657L406.88 327.769C406.862 334.986 410.732 341.653 417.008 345.215L670.128 488.866C683.46 496.433 699.999 486.802 699.999 471.472L699.999 180.531Z" fill="#FFDE00"/>
<path d="M83.1782 567.202C69.8088 574.904 69.828 594.204 83.2126 601.88L329.699 743.244C335.782 746.732 343.247 746.781 349.374 743.371L609.496 598.629C623.13 591.042 623.213 571.46 609.643 563.759L357.391 420.589C351.228 417.091 343.675 417.116 337.535 420.653L83.1782 567.202Z" fill="#03D1A0"/>
<path d="M9.19713e-08 178.671C8.82349e-08 171.413 3.93276 164.724 10.2756 161.195L270.251 16.5392C283.582 9.12171 299.976 18.7604 299.976 34.0159L299.976 325.676C299.976 332.945 296.032 339.641 289.675 343.166L29.6997 487.341C16.3693 494.734 2.49703e-07 485.094 2.41856e-07 469.851L9.19713e-08 178.671Z" fill="#FF2970"/>
<path d="M346.172 362.579L79.8231 210.482L79.0332 517.977L346.172 669.584L346.172 362.579Z" fill="#8C52FF"/>
<path d="M341.836 360.198L615.201 208.081L615.201 515.587L341.836 667.194L341.836 360.198Z" fill="#6332C4"/>
<path d="M79.2214 210.961L340.278 360.666L614.65 207.992L347.51 56.3784L79.2214 210.961Z" fill="#A986EF"/>
</svg>
