<svg width="5708" height="749" viewBox="0 0 5708 749" fill="none" xmlns="http://www.w3.org/2000/svg">
<path d="M948.5 540V186.5H1011V540H948.5ZM1187.6 543.5C1160.93 543.5 1138.93 537.5 1121.6 525.5C1104.27 513.167 1091.27 496.833 1082.6 476.5C1074.27 456.167 1070.1 433.5 1070.1 408.5C1070.1 382.5 1074.6 359.333 1083.6 339C1092.6 318.333 1106.1 302.167 1124.1 290.5C1142.1 278.5 1164.6 272.5 1191.6 272.5C1201.6 272.5 1211.27 273.667 1220.6 276C1230.27 278 1239.27 281.333 1247.6 286C1256.27 290.333 1263.43 296.167 1269.1 303.5V186.5H1330.1V540H1271.1L1270.1 507C1263.77 515.333 1256.27 522.167 1247.6 527.5C1239.27 532.833 1229.93 536.833 1219.6 539.5C1209.27 542.167 1198.6 543.5 1187.6 543.5ZM1199.1 488.5C1215.1 488.5 1228.27 484.833 1238.6 477.5C1248.93 469.833 1256.6 459.833 1261.6 447.5C1266.93 434.833 1269.6 421.5 1269.6 407.5C1269.6 392.833 1266.93 379.5 1261.6 367.5C1256.6 355.5 1248.93 345.833 1238.6 338.5C1228.27 331.167 1215.1 327.5 1199.1 327.5C1182.1 327.5 1168.6 331.333 1158.6 339C1148.93 346.667 1141.77 356.833 1137.1 369.5C1132.77 381.833 1130.6 395.167 1130.6 409.5C1130.6 420.167 1131.77 430.333 1134.1 440C1136.77 449.333 1140.77 457.667 1146.1 465C1151.43 472.333 1158.43 478.167 1167.1 482.5C1175.77 486.5 1186.43 488.5 1199.1 488.5ZM1505.68 543.5C1467.68 543.5 1438.52 533.667 1418.18 514C1398.18 494.333 1388.18 464.333 1388.18 424V276.5H1449.18V420C1449.18 434 1451.02 446.167 1454.68 456.5C1458.68 466.833 1464.85 474.833 1473.18 480.5C1481.85 485.833 1492.68 488.5 1505.68 488.5C1519.68 488.5 1530.68 485.667 1538.68 480C1547.02 474 1552.85 465.833 1556.18 455.5C1559.52 445.167 1561.18 433.333 1561.18 420V276.5H1622.18V424C1622.18 465.333 1611.85 495.667 1591.18 515C1570.85 534 1542.35 543.5 1505.68 543.5ZM1680.2 540V276.5H1737.2L1740.7 310C1747.7 300.667 1755.87 293.333 1765.2 288C1774.53 282.667 1784.37 278.833 1794.7 276.5C1805.03 273.833 1814.7 272.5 1823.7 272.5C1848.7 272.5 1868.37 278 1882.7 289C1897.37 300 1907.7 314.667 1913.7 333C1919.7 351.333 1922.7 371.833 1922.7 394.5V540H1861.7V404.5C1861.7 394.833 1861.03 385.5 1859.7 376.5C1858.37 367.167 1855.7 358.833 1851.7 351.5C1848.03 344.167 1842.7 338.333 1835.7 334C1828.7 329.667 1819.37 327.5 1807.7 327.5C1793.37 327.5 1781.2 331.333 1771.2 339C1761.2 346.667 1753.7 357 1748.7 370C1743.7 382.667 1741.2 397.167 1741.2 413.5V540H1680.2ZM2091.66 540L2227.16 186.5H2301.66L2436.66 540H2369.16L2345.66 474.5H2182.66L2158.66 540H2091.66ZM2202.66 418H2325.16L2264.16 249.5L2202.66 418ZM2590.79 660.5C2571.45 660.5 2553.29 657.333 2536.29 651C2519.62 645 2505.45 635.333 2493.79 622C2482.45 609 2474.79 592.167 2470.79 571.5H2533.29C2535.29 579.5 2539.29 586 2545.29 591C2551.29 596 2558.29 599.5 2566.29 601.5C2574.62 603.833 2583.12 605 2591.79 605C2608.12 605 2620.95 601.667 2630.29 595C2639.95 588.333 2646.79 579.167 2650.79 567.5C2654.79 556.167 2656.79 543.667 2656.79 530V505C2650.79 514.667 2643.12 522.333 2633.79 528C2624.79 533.667 2615.12 537.667 2604.79 540C2594.79 542 2584.79 543 2574.79 543C2547.45 543 2525.12 537 2507.79 525C2490.79 513 2478.29 497 2470.29 477C2462.29 456.667 2458.29 434.333 2458.29 410C2458.29 384.667 2462.62 361.667 2471.29 341C2480.29 320 2493.62 303.333 2511.29 291C2529.29 278.667 2551.79 272.5 2578.79 272.5C2594.45 272.5 2609.12 275.333 2622.79 281C2636.79 286.333 2648.45 294.5 2657.79 305.5L2661.79 276.5H2718.29V517C2718.29 546.667 2713.95 572.167 2705.29 593.5C2696.95 615.167 2683.45 631.667 2664.79 643C2646.12 654.667 2621.45 660.5 2590.79 660.5ZM2587.29 489C2602.95 489 2615.95 485.333 2626.29 478C2636.62 470.333 2644.45 460.333 2649.79 448C2655.12 435.333 2657.79 421.667 2657.79 407C2657.79 392 2655.12 378.5 2649.79 366.5C2644.79 354.5 2637.12 345 2626.79 338C2616.79 331 2603.79 327.5 2587.79 327.5C2570.79 327.5 2557.29 331.333 2547.29 339C2537.29 346.667 2529.95 356.833 2525.29 369.5C2520.95 381.833 2518.79 395 2518.79 409C2518.79 423.667 2521.12 437.167 2525.79 449.5C2530.45 461.5 2537.79 471.167 2547.79 478.5C2557.79 485.5 2570.95 489 2587.29 489ZM2895.37 543.5C2868.03 543.5 2844.7 537.833 2825.37 526.5C2806.37 515.167 2791.87 499.5 2781.87 479.5C2772.2 459.167 2767.37 435.667 2767.37 409C2767.37 382.333 2772.37 358.833 2782.37 338.5C2792.7 317.833 2807.37 301.667 2826.37 290C2845.7 278.333 2868.87 272.5 2895.87 272.5C2915.87 272.5 2933.37 276.167 2948.37 283.5C2963.37 290.5 2975.87 300.167 2985.87 312.5C2996.2 324.833 3003.87 338.833 3008.87 354.5C3013.87 370.167 3016.2 386.667 3015.87 404C3015.53 408 3015.2 412 3014.87 416C3014.53 419.667 3014.03 423.667 3013.37 428H2828.37C2829.37 439.667 2832.37 450.333 2837.37 460C2842.7 469.667 2850.03 477.333 2859.37 483C2869.03 488.667 2881.03 491.5 2895.37 491.5C2903.7 491.5 2911.7 490.5 2919.37 488.5C2927.03 486.167 2933.7 482.833 2939.37 478.5C2945.37 474.167 2949.37 468.667 2951.37 462H3012.37C3008.03 481 3000.03 496.5 2988.37 508.5C2976.7 520.5 2962.7 529.333 2946.37 535C2930.37 540.667 2913.37 543.5 2895.37 543.5ZM2829.37 382.5H2956.37C2956.37 371.5 2953.87 361.5 2948.87 352.5C2943.87 343.5 2936.7 336.5 2927.37 331.5C2918.37 326.167 2907.37 323.5 2894.37 323.5C2880.37 323.5 2868.7 326.333 2859.37 332C2850.03 337.667 2842.87 345 2837.87 354C2832.87 363 2830.03 372.5 2829.37 382.5ZM3064.48 540V276.5H3121.48L3124.98 310C3131.98 300.667 3140.14 293.333 3149.48 288C3158.81 282.667 3168.64 278.833 3178.98 276.5C3189.31 273.833 3198.98 272.5 3207.98 272.5C3232.98 272.5 3252.64 278 3266.98 289C3281.64 300 3291.98 314.667 3297.98 333C3303.98 351.333 3306.98 371.833 3306.98 394.5V540H3245.98V404.5C3245.98 394.833 3245.31 385.5 3243.98 376.5C3242.64 367.167 3239.98 358.833 3235.98 351.5C3232.31 344.167 3226.98 338.333 3219.98 334C3212.98 329.667 3203.64 327.5 3191.98 327.5C3177.64 327.5 3165.48 331.333 3155.48 339C3145.48 346.667 3137.98 357 3132.98 370C3127.98 382.667 3125.48 397.167 3125.48 413.5V540H3064.48ZM3469.28 543C3440.28 543 3419.11 535 3405.78 519C3392.45 503 3385.78 480.833 3385.78 452.5V330.5H3345.28V276.5H3385.78V202.5H3446.78V276.5H3526.78V330.5H3446.78V441C3446.78 449.667 3447.78 457.5 3449.78 464.5C3451.78 471.5 3455.45 477 3460.78 481C3466.11 485 3473.45 487.167 3482.78 487.5C3490.78 487.5 3497.61 486.167 3503.28 483.5C3508.95 480.833 3513.61 477.833 3517.28 474.5L3537.78 521C3531.45 526.333 3524.28 530.667 3516.28 534C3508.61 537.333 3500.78 539.667 3492.78 541C3484.78 542.333 3476.95 543 3469.28 543ZM3719.98 540V186.5H3852.98C3879.65 186.5 3902.65 190.667 3921.98 199C3941.65 207 3956.82 219.833 3967.48 237.5C3978.48 255.167 3983.98 278.333 3983.98 307C3983.98 334.333 3977.98 357.167 3965.98 375.5C3953.98 393.833 3937.65 407.667 3916.98 417C3896.32 426 3872.65 430.5 3845.98 430.5H3782.48V540H3719.98ZM3782.48 374.5H3844.98C3867.98 374.5 3886.48 369 3900.48 358C3914.48 347 3921.48 329.667 3921.48 306C3921.48 285.333 3915.65 269.833 3903.98 259.5C3892.32 248.833 3874.32 243.5 3849.98 243.5H3782.48V374.5ZM4033.23 540V186.5H4094.23V540H4033.23ZM4237.34 543.5C4225.01 543.5 4213.34 541.833 4202.34 538.5C4191.34 535.167 4181.51 530.333 4172.84 524C4164.18 517.333 4157.18 509.167 4151.84 499.5C4146.84 489.5 4144.34 477.833 4144.34 464.5C4144.34 447.5 4147.68 433.667 4154.34 423C4161.01 412 4170.01 403.667 4181.34 398C4193.01 392.333 4206.18 388.5 4220.84 386.5C4235.51 384.167 4250.84 383 4266.84 383H4318.34C4318.34 371.333 4316.51 361.333 4312.84 353C4309.18 344.333 4303.34 337.5 4295.34 332.5C4287.68 327.5 4277.68 325 4265.34 325C4257.34 325 4249.84 326 4242.84 328C4236.18 329.667 4230.34 332.5 4225.34 336.5C4220.68 340.167 4217.34 345 4215.34 351H4152.84C4155.18 337.333 4159.84 325.667 4166.84 316C4174.18 306 4183.01 297.833 4193.34 291.5C4204.01 285.167 4215.68 280.5 4228.34 277.5C4241.01 274.167 4253.84 272.5 4266.84 272.5C4305.18 272.5 4333.01 283.5 4350.34 305.5C4368.01 327.5 4376.84 358.333 4376.84 398V540H4322.84L4321.34 506C4313.68 517.333 4304.51 525.667 4293.84 531C4283.18 536.333 4272.84 539.667 4262.84 541C4252.84 542.667 4244.34 543.5 4237.34 543.5ZM4249.34 494C4262.68 494 4274.51 491.5 4284.84 486.5C4295.18 481.5 4303.34 474.5 4309.34 465.5C4315.68 456.5 4318.84 446.167 4318.84 434.5V426H4270.84C4262.84 426 4254.84 426.333 4246.84 427C4239.18 427.333 4232.18 428.667 4225.84 431C4219.51 433 4214.34 436.167 4210.34 440.5C4206.68 444.833 4204.84 451 4204.84 459C4204.84 467 4206.84 473.5 4210.84 478.5C4215.18 483.5 4220.68 487.333 4227.34 490C4234.34 492.667 4241.68 494 4249.34 494ZM4540.08 543C4511.08 543 4489.92 535 4476.58 519C4463.25 503 4456.58 480.833 4456.58 452.5V330.5H4416.08V276.5H4456.58V202.5H4517.58V276.5H4597.58V330.5H4517.58V441C4517.58 449.667 4518.58 457.5 4520.58 464.5C4522.58 471.5 4526.25 477 4531.58 481C4536.92 485 4544.25 487.167 4553.58 487.5C4561.58 487.5 4568.42 486.167 4574.08 483.5C4579.75 480.833 4584.42 477.833 4588.08 474.5L4608.58 521C4602.25 526.333 4595.08 530.667 4587.08 534C4579.42 537.333 4571.58 539.667 4563.58 541C4555.58 542.333 4547.75 543 4540.08 543ZM4665.13 540V330.5H4624.13V276.5H4665.13V251.5C4665.13 231.5 4668.13 215.167 4674.13 202.5C4680.13 189.5 4689.63 180 4702.63 174C4715.96 168 4732.96 165 4753.63 165H4792.63V219H4760.63C4751.63 219 4744.63 220.5 4739.63 223.5C4734.63 226.5 4730.96 231 4728.63 237C4726.63 242.667 4725.63 249.667 4725.63 258V276.5H4792.63V330.5H4725.63V540H4665.13ZM4946.21 543.5C4919.21 543.5 4895.87 538 4876.21 527C4856.87 516 4841.87 500.333 4831.21 480C4820.87 459.667 4815.71 435.833 4815.71 408.5C4815.71 380.833 4821.04 357 4831.71 337C4842.37 316.667 4857.37 300.833 4876.71 289.5C4896.04 278.167 4919.21 272.5 4946.21 272.5C4972.87 272.5 4995.87 278.167 5015.21 289.5C5034.54 300.833 5049.37 316.833 5059.71 337.5C5070.04 357.833 5075.21 381.833 5075.21 409.5C5075.21 436.5 5070.04 460.167 5059.71 480.5C5049.71 500.5 5035.04 516 5015.71 527C4996.37 538 4973.21 543.5 4946.21 543.5ZM4945.71 488C4962.37 488 4975.71 484.333 4985.71 477C4996.04 469.667 5003.54 460 5008.21 448C5012.87 436 5015.21 423 5015.21 409C5015.21 395 5012.87 381.833 5008.21 369.5C5003.54 357.167 4996.04 347.333 4985.71 340C4975.71 332.333 4962.37 328.5 4945.71 328.5C4929.04 328.5 4915.54 332.333 4905.21 340C4894.87 347.333 4887.37 357.167 4882.71 369.5C4878.04 381.5 4875.71 394.667 4875.71 409C4875.71 423 4878.04 436.167 4882.71 448.5C4887.71 460.5 4895.21 470.167 4905.21 477.5C4915.54 484.5 4929.04 488 4945.71 488ZM5124.05 540V276.5H5179.55L5183.05 311C5189.71 301 5197.21 293.333 5205.55 288C5214.21 282.333 5223.38 278.333 5233.05 276C5243.05 273.667 5253.05 272.5 5263.05 272.5C5266.71 272.5 5270.05 272.5 5273.05 272.5C5276.38 272.5 5279.05 272.667 5281.05 273V331H5265.05C5247.71 331 5233.05 334.333 5221.05 341C5209.05 347.667 5200.05 357.167 5194.05 369.5C5188.05 381.833 5185.05 397 5185.05 415V540H5124.05ZM5316.92 540V276.5H5372.92L5376.92 306.5C5383.58 297.5 5390.75 290.667 5398.42 286C5406.42 281 5414.58 277.5 5422.92 275.5C5431.58 273.5 5439.75 272.5 5447.42 272.5C5464.08 272.5 5478.25 275.833 5489.92 282.5C5501.92 289.167 5511.25 299.167 5517.92 312.5C5524.58 303.167 5532.08 295.667 5540.42 290C5548.75 284 5557.58 279.667 5566.92 277C5576.25 274 5586.08 272.5 5596.42 272.5C5616.75 272.5 5633.08 276.833 5645.42 285.5C5657.75 293.833 5666.75 305.5 5672.42 320.5C5678.08 335.167 5680.92 352 5680.92 371V540H5619.92V390.5C5619.92 383.833 5619.58 376.833 5618.92 369.5C5618.25 362.167 5616.42 355.333 5613.42 349C5610.75 342.667 5606.75 337.5 5601.42 333.5C5596.08 329.5 5588.58 327.5 5578.92 327.5C5569.25 327.5 5561.25 329.667 5554.92 334C5548.92 338 5543.92 343.5 5539.92 350.5C5536.25 357.167 5533.58 364.667 5531.92 373C5530.58 381 5529.92 389 5529.92 397V540H5468.92V390C5468.92 383.667 5468.42 377 5467.42 370C5466.75 362.667 5465.08 355.833 5462.42 349.5C5460.08 342.833 5456.08 337.5 5450.42 333.5C5445.08 329.5 5437.58 327.5 5427.92 327.5C5413.92 327.5 5403.25 331.333 5395.92 339C5388.92 346.667 5384.08 356 5381.42 367C5379.08 378 5377.92 388.5 5377.92 398.5V540H5316.92Z" fill="black"/>
<path d="M699.999 180.531C699.999 173.352 696.151 166.724 689.917 163.163L437.545 19.0492C424.232 11.4467 407.667 21.0347 407.627 36.3657L406.88 327.769C406.862 334.986 410.732 341.653 417.008 345.215L670.128 488.866C683.46 496.433 699.999 486.802 699.999 471.472L699.999 180.531Z" fill="#FFDE00"/>
<path d="M83.1782 567.202C69.8088 574.904 69.828 594.204 83.2126 601.88L329.699 743.244C335.782 746.732 343.247 746.781 349.374 743.371L609.496 598.629C623.13 591.042 623.213 571.46 609.643 563.759L357.391 420.589C351.228 417.091 343.675 417.116 337.535 420.653L83.1782 567.202Z" fill="#03D1A0"/>
<path d="M9.19713e-08 178.671C8.82349e-08 171.413 3.93276 164.724 10.2756 161.195L270.251 16.5392C283.582 9.12171 299.976 18.7604 299.976 34.0159L299.976 325.676C299.976 332.945 296.032 339.641 289.675 343.166L29.6997 487.341C16.3693 494.734 2.49703e-07 485.094 2.41856e-07 469.851L9.19713e-08 178.671Z" fill="#FF2970"/>
<path d="M346.172 362.579L79.8231 210.482L79.0332 517.977L346.172 669.584L346.172 362.579Z" fill="#8C52FF"/>
<path d="M341.836 360.198L615.201 208.081L615.201 515.587L341.836 667.194L341.836 360.198Z" fill="#6332C4"/>
<path d="M79.2214 210.961L340.278 360.666L614.65 207.992L347.51 56.3784L79.2214 210.961Z" fill="#A986EF"/>
</svg>
