<svg width="100" height="107" viewBox="0 0 100 107" fill="none" xmlns="http://www.w3.org/2000/svg">
<path d="M100 25.2928C100 24.5748 99.6157 23.912 98.9922 23.556L61.2287 1.99147C59.8973 1.23123 58.2408 2.19001 58.2369 3.72312L58.1251 47.325C58.1232 48.0466 58.5103 48.7133 59.1379 49.0695L97.0133 70.5648C98.3466 71.3214 100 70.3584 100 68.8253L100 25.2928Z" fill="#FFDE00"/>
<path d="M10.5923 81.7729C9.25539 82.5432 9.25731 84.4731 10.5958 85.2408L47.5216 106.418C48.1299 106.767 48.8764 106.772 49.4891 106.431L88.4053 84.7765C89.7687 84.0178 89.777 82.0596 88.42 81.2895L50.6313 59.8419C50.015 59.4921 49.2596 59.4945 48.6456 59.8483L10.5923 81.7729Z" fill="#03D1A0"/>
<path d="M1.28793e-08 25.0205C1.25057e-08 24.2946 0.393276 23.6258 1.02756 23.2728L39.8812 1.65392C41.2142 0.91217 42.8536 1.87604 42.8536 3.4016L42.8536 47.0299C42.8536 47.7568 42.4592 48.4265 41.8236 48.779L2.96997 70.326C1.63693 71.0653 3.60847e-08 70.1013 3.53001e-08 68.577L1.28793e-08 25.0205Z" fill="#FF2970"/>
<path d="M49.4505 51.7965L11.4007 30.0684L11.2878 73.9962L49.4505 95.6544L49.4505 51.7965Z" fill="#8C52FF"/>
<path d="M48.8303 51.4567L87.8824 29.7256L87.8824 73.655L48.8303 95.3132L48.8303 51.4567Z" fill="#6332C4"/>
<path d="M11.3147 30.1369L48.6085 51.5234L87.8043 29.7128L49.6416 8.05371L11.3147 30.1369Z" fill="#A986EF"/>
</svg>
