<svg width="3694" height="749" viewBox="0 0 3694 749" fill="none" xmlns="http://www.w3.org/2000/svg">
<path d="M699.999 180.531C699.999 173.352 696.151 166.724 689.917 163.164L437.545 19.0494C424.232 11.447 407.667 21.0349 407.627 36.3659L406.88 327.77C406.862 334.986 410.732 341.653 417.008 345.215L670.128 488.866C683.46 496.433 699.999 486.803 699.999 471.472L699.999 180.531Z" fill="#FFDE00"/>
<path d="M83.1782 567.201C69.8088 574.904 69.828 594.204 83.2126 601.88L329.699 743.244C335.782 746.732 343.247 746.78 349.374 743.371L609.496 598.629C623.13 591.042 623.213 571.46 609.643 563.758L357.391 420.589C351.228 417.091 343.675 417.115 337.535 420.653L83.1782 567.201Z" fill="#03D1A0"/>
<path d="M9.19713e-08 178.671C8.82349e-08 171.413 3.93276 164.724 10.2756 161.195L270.251 16.5392C283.582 9.12171 299.976 18.7604 299.976 34.0159L299.976 325.676C299.976 332.945 296.032 339.641 289.675 343.166L29.6997 487.341C16.3693 494.734 2.49703e-07 485.094 2.41856e-07 469.851L9.19713e-08 178.671Z" fill="#FF2970"/>
<path d="M346.172 362.579L79.8231 210.482L79.0332 517.977L346.172 669.584L346.172 362.579Z" fill="#8C52FF"/>
<path d="M341.836 360.199L615.201 208.081L615.201 515.587L341.836 667.195L341.836 360.199Z" fill="#6332C4"/>
<path d="M79.2214 210.961L340.278 360.667L614.65 207.992L347.51 56.3789L79.2214 210.961Z" fill="#A986EF"/>
<path d="M927.5 517V163.5H990V517H927.5ZM1166.6 520.5C1139.93 520.5 1117.93 514.5 1100.6 502.5C1083.27 490.167 1070.27 473.833 1061.6 453.5C1053.27 433.167 1049.1 410.5 1049.1 385.5C1049.1 359.5 1053.6 336.333 1062.6 316C1071.6 295.333 1085.1 279.167 1103.1 267.5C1121.1 255.5 1143.6 249.5 1170.6 249.5C1180.6 249.5 1190.27 250.667 1199.6 253C1209.27 255 1218.27 258.333 1226.6 263C1235.27 267.333 1242.43 273.167 1248.1 280.5V163.5H1309.1V517H1250.1L1249.1 484C1242.77 492.333 1235.27 499.167 1226.6 504.5C1218.27 509.833 1208.93 513.833 1198.6 516.5C1188.27 519.167 1177.6 520.5 1166.6 520.5ZM1178.1 465.5C1194.1 465.5 1207.27 461.833 1217.6 454.5C1227.93 446.833 1235.6 436.833 1240.6 424.5C1245.93 411.833 1248.6 398.5 1248.6 384.5C1248.6 369.833 1245.93 356.5 1240.6 344.5C1235.6 332.5 1227.93 322.833 1217.6 315.5C1207.27 308.167 1194.1 304.5 1178.1 304.5C1161.1 304.5 1147.6 308.333 1137.6 316C1127.93 323.667 1120.77 333.833 1116.1 346.5C1111.77 358.833 1109.6 372.167 1109.6 386.5C1109.6 397.167 1110.77 407.333 1113.1 417C1115.77 426.333 1119.77 434.667 1125.1 442C1130.43 449.333 1137.43 455.167 1146.1 459.5C1154.77 463.5 1165.43 465.5 1178.1 465.5ZM1484.68 520.5C1446.68 520.5 1417.52 510.667 1397.18 491C1377.18 471.333 1367.18 441.333 1367.18 401V253.5H1428.18V397C1428.18 411 1430.02 423.167 1433.68 433.5C1437.68 443.833 1443.85 451.833 1452.18 457.5C1460.85 462.833 1471.68 465.5 1484.68 465.5C1498.68 465.5 1509.68 462.667 1517.68 457C1526.02 451 1531.85 442.833 1535.18 432.5C1538.52 422.167 1540.18 410.333 1540.18 397V253.5H1601.18V401C1601.18 442.333 1590.85 472.667 1570.18 492C1549.85 511 1521.35 520.5 1484.68 520.5ZM1659.2 517V253.5H1716.2L1719.7 287C1726.7 277.667 1734.87 270.333 1744.2 265C1753.53 259.667 1763.37 255.833 1773.7 253.5C1784.03 250.833 1793.7 249.5 1802.7 249.5C1827.7 249.5 1847.37 255 1861.7 266C1876.37 277 1886.7 291.667 1892.7 310C1898.7 328.333 1901.7 348.833 1901.7 371.5V517H1840.7V381.5C1840.7 371.833 1840.03 362.5 1838.7 353.5C1837.37 344.167 1834.7 335.833 1830.7 328.5C1827.03 321.167 1821.7 315.333 1814.7 311C1807.7 306.667 1798.37 304.5 1786.7 304.5C1772.37 304.5 1760.2 308.333 1750.2 316C1740.2 323.667 1732.7 334 1727.7 347C1722.7 359.667 1720.2 374.167 1720.2 390.5V517H1659.2ZM2108.16 517V163.5H2357.66V220.5H2170.66V313.5H2333.16V369.5H2170.66V460H2357.66V517H2108.16ZM2407.25 517V253.5H2464.25L2467.75 287C2474.75 277.667 2482.91 270.333 2492.25 265C2501.58 259.667 2511.41 255.833 2521.75 253.5C2532.08 250.833 2541.75 249.5 2550.75 249.5C2575.75 249.5 2595.41 255 2609.75 266C2624.41 277 2634.75 291.667 2640.75 310C2646.75 328.333 2649.75 348.833 2649.75 371.5V517H2588.75V381.5C2588.75 371.833 2588.08 362.5 2586.75 353.5C2585.41 344.167 2582.75 335.833 2578.75 328.5C2575.08 321.167 2569.75 315.333 2562.75 311C2555.75 306.667 2546.41 304.5 2534.75 304.5C2520.41 304.5 2508.25 308.333 2498.25 316C2488.25 323.667 2480.75 334 2475.75 347C2470.75 359.667 2468.25 374.167 2468.25 390.5V517H2407.25ZM2829.55 637.5C2810.22 637.5 2792.05 634.333 2775.05 628C2758.38 622 2744.22 612.333 2732.55 599C2721.22 586 2713.55 569.167 2709.55 548.5H2772.05C2774.05 556.5 2778.05 563 2784.05 568C2790.05 573 2797.05 576.5 2805.05 578.5C2813.38 580.833 2821.88 582 2830.55 582C2846.88 582 2859.72 578.667 2869.05 572C2878.72 565.333 2885.55 556.167 2889.55 544.5C2893.55 533.167 2895.55 520.667 2895.55 507V482C2889.55 491.667 2881.88 499.333 2872.55 505C2863.55 510.667 2853.88 514.667 2843.55 517C2833.55 519 2823.55 520 2813.55 520C2786.22 520 2763.88 514 2746.55 502C2729.55 490 2717.05 474 2709.05 454C2701.05 433.667 2697.05 411.333 2697.05 387C2697.05 361.667 2701.38 338.667 2710.05 318C2719.05 297 2732.38 280.333 2750.05 268C2768.05 255.667 2790.55 249.5 2817.55 249.5C2833.22 249.5 2847.88 252.333 2861.55 258C2875.55 263.333 2887.22 271.5 2896.55 282.5L2900.55 253.5H2957.05V494C2957.05 523.667 2952.72 549.167 2944.05 570.5C2935.72 592.167 2922.22 608.667 2903.55 620C2884.88 631.667 2860.22 637.5 2829.55 637.5ZM2826.05 466C2841.72 466 2854.72 462.333 2865.05 455C2875.38 447.333 2883.22 437.333 2888.55 425C2893.88 412.333 2896.55 398.667 2896.55 384C2896.55 369 2893.88 355.5 2888.55 343.5C2883.55 331.5 2875.88 322 2865.55 315C2855.55 308 2842.55 304.5 2826.55 304.5C2809.55 304.5 2796.05 308.333 2786.05 316C2776.05 323.667 2768.72 333.833 2764.05 346.5C2759.72 358.833 2757.55 372 2757.55 386C2757.55 400.667 2759.88 414.167 2764.55 426.5C2769.22 438.5 2776.55 448.167 2786.55 455.5C2796.55 462.5 2809.72 466 2826.05 466ZM3016.13 517V253.5H3077.13V517H3016.13ZM3046.63 223C3034.97 223 3025.63 219.5 3018.63 212.5C3011.63 205.5 3008.13 196.333 3008.13 185C3008.13 174 3011.8 165 3019.13 158C3026.47 150.667 3035.63 147 3046.63 147C3057.3 147 3066.47 150.5 3074.13 157.5C3081.8 164.5 3085.63 173.667 3085.63 185C3085.63 196.333 3081.97 205.5 3074.63 212.5C3067.3 219.5 3057.97 223 3046.63 223ZM3136.25 517V253.5H3193.25L3196.75 287C3203.75 277.667 3211.92 270.333 3221.25 265C3230.58 259.667 3240.42 255.833 3250.75 253.5C3261.08 250.833 3270.75 249.5 3279.75 249.5C3304.75 249.5 3324.42 255 3338.75 266C3353.42 277 3363.75 291.667 3369.75 310C3375.75 328.333 3378.75 348.833 3378.75 371.5V517H3317.75V381.5C3317.75 371.833 3317.08 362.5 3315.75 353.5C3314.42 344.167 3311.75 335.833 3307.75 328.5C3304.08 321.167 3298.75 315.333 3291.75 311C3284.75 306.667 3275.42 304.5 3263.75 304.5C3249.42 304.5 3237.25 308.333 3227.25 316C3217.25 323.667 3209.75 334 3204.75 347C3199.75 359.667 3197.25 374.167 3197.25 390.5V517H3136.25ZM3554.05 520.5C3526.72 520.5 3503.39 514.833 3484.05 503.5C3465.05 492.167 3450.55 476.5 3440.55 456.5C3430.89 436.167 3426.05 412.667 3426.05 386C3426.05 359.333 3431.05 335.833 3441.05 315.5C3451.39 294.833 3466.05 278.667 3485.05 267C3504.39 255.333 3527.55 249.5 3554.55 249.5C3574.55 249.5 3592.05 253.167 3607.05 260.5C3622.05 267.5 3634.55 277.167 3644.55 289.5C3654.89 301.833 3662.55 315.833 3667.55 331.5C3672.55 347.167 3674.89 363.667 3674.55 381C3674.22 385 3673.89 389 3673.55 393C3673.22 396.667 3672.72 400.667 3672.05 405H3487.05C3488.05 416.667 3491.05 427.333 3496.05 437C3501.39 446.667 3508.72 454.333 3518.05 460C3527.72 465.667 3539.72 468.5 3554.05 468.5C3562.39 468.5 3570.39 467.5 3578.05 465.5C3585.72 463.167 3592.39 459.833 3598.05 455.5C3604.05 451.167 3608.05 445.667 3610.05 439H3671.05C3666.72 458 3658.72 473.5 3647.05 485.5C3635.39 497.5 3621.39 506.333 3605.05 512C3589.05 517.667 3572.05 520.5 3554.05 520.5ZM3488.05 359.5H3615.05C3615.05 348.5 3612.55 338.5 3607.55 329.5C3602.55 320.5 3595.39 313.5 3586.05 308.5C3577.05 303.167 3566.05 300.5 3553.05 300.5C3539.05 300.5 3527.39 303.333 3518.05 309C3508.72 314.667 3501.55 322 3496.55 331C3491.55 340 3488.72 349.5 3488.05 359.5Z" fill="black"/>
</svg>
