<svg width="2748" height="491" viewBox="0 0 2748 491" fill="none" xmlns="http://www.w3.org/2000/svg">
<path d="M1.81794e-06 370V16.5H62.5V370H1.81794e-06ZM239.102 373.5C212.435 373.5 190.435 367.5 173.102 355.5C155.768 343.167 142.768 326.833 134.102 306.5C125.768 286.167 121.602 263.5 121.602 238.5C121.602 212.5 126.102 189.333 135.102 169C144.102 148.333 157.602 132.167 175.602 120.5C193.602 108.5 216.102 102.5 243.102 102.5C253.102 102.5 262.768 103.667 272.102 106C281.768 108 290.768 111.333 299.102 116C307.768 120.333 314.935 126.167 320.602 133.5V16.5H381.602V370H322.602L321.602 337C315.268 345.333 307.768 352.167 299.102 357.5C290.768 362.833 281.435 366.833 271.102 369.5C260.768 372.167 250.102 373.5 239.102 373.5ZM250.602 318.5C266.602 318.5 279.768 314.833 290.102 307.5C300.435 299.833 308.102 289.833 313.102 277.5C318.435 264.833 321.102 251.5 321.102 237.5C321.102 222.833 318.435 209.5 313.102 197.5C308.102 185.5 300.435 175.833 290.102 168.5C279.768 161.167 266.602 157.5 250.602 157.5C233.602 157.5 220.102 161.333 210.102 169C200.435 176.667 193.268 186.833 188.602 199.5C184.268 211.833 182.102 225.167 182.102 239.5C182.102 250.167 183.268 260.333 185.602 270C188.268 279.333 192.268 287.667 197.602 295C202.935 302.333 209.935 308.167 218.602 312.5C227.268 316.5 237.935 318.5 250.602 318.5ZM557.184 373.5C519.184 373.5 490.017 363.667 469.684 344C449.684 324.333 439.684 294.333 439.684 254V106.5H500.684V250C500.684 264 502.517 276.167 506.184 286.5C510.184 296.833 516.35 304.833 524.684 310.5C533.35 315.833 544.184 318.5 557.184 318.5C571.184 318.5 582.184 315.667 590.184 310C598.517 304 604.35 295.833 607.684 285.5C611.017 275.167 612.684 263.333 612.684 250V106.5H673.684V254C673.684 295.333 663.35 325.667 642.684 345C622.35 364 593.85 373.5 557.184 373.5ZM731.699 370V106.5H788.699L792.199 140C799.199 130.667 807.366 123.333 816.699 118C826.033 112.667 835.866 108.833 846.199 106.5C856.533 103.833 866.199 102.5 875.199 102.5C900.199 102.5 919.866 108 934.199 119C948.866 130 959.199 144.667 965.199 163C971.199 181.333 974.199 201.833 974.199 224.5V370H913.199V234.5C913.199 224.833 912.533 215.5 911.199 206.5C909.866 197.167 907.199 188.833 903.199 181.5C899.533 174.167 894.199 168.333 887.199 164C880.199 159.667 870.866 157.5 859.199 157.5C844.866 157.5 832.699 161.333 822.699 169C812.699 176.667 805.199 187 800.199 200C795.199 212.667 792.699 227.167 792.699 243.5V370H731.699ZM1180.66 370V16.5H1430.16V73.5H1243.16V166.5H1405.66V222.5H1243.16V313H1430.16V370H1180.66ZM1479.75 370V106.5H1536.75L1540.25 140C1547.25 130.667 1555.41 123.333 1564.75 118C1574.08 112.667 1583.91 108.833 1594.25 106.5C1604.58 103.833 1614.25 102.5 1623.25 102.5C1648.25 102.5 1667.91 108 1682.25 119C1696.91 130 1707.25 144.667 1713.25 163C1719.25 181.333 1722.25 201.833 1722.25 224.5V370H1661.25V234.5C1661.25 224.833 1660.58 215.5 1659.25 206.5C1657.91 197.167 1655.25 188.833 1651.25 181.5C1647.58 174.167 1642.25 168.333 1635.25 164C1628.25 159.667 1618.91 157.5 1607.25 157.5C1592.91 157.5 1580.75 161.333 1570.75 169C1560.75 176.667 1553.25 187 1548.25 200C1543.25 212.667 1540.75 227.167 1540.75 243.5V370H1479.75ZM1902.05 490.5C1882.72 490.5 1864.55 487.333 1847.55 481C1830.88 475 1816.72 465.333 1805.05 452C1793.72 439 1786.05 422.167 1782.05 401.5H1844.55C1846.55 409.5 1850.55 416 1856.55 421C1862.55 426 1869.55 429.5 1877.55 431.5C1885.88 433.833 1894.38 435 1903.05 435C1919.38 435 1932.22 431.667 1941.55 425C1951.22 418.333 1958.05 409.167 1962.05 397.5C1966.05 386.167 1968.05 373.667 1968.05 360V335C1962.05 344.667 1954.38 352.333 1945.05 358C1936.05 363.667 1926.38 367.667 1916.05 370C1906.05 372 1896.05 373 1886.05 373C1858.72 373 1836.38 367 1819.05 355C1802.05 343 1789.55 327 1781.55 307C1773.55 286.667 1769.55 264.333 1769.55 240C1769.55 214.667 1773.88 191.667 1782.55 171C1791.55 150 1804.88 133.333 1822.55 121C1840.55 108.667 1863.05 102.5 1890.05 102.5C1905.72 102.5 1920.38 105.333 1934.05 111C1948.05 116.333 1959.72 124.5 1969.05 135.5L1973.05 106.5H2029.55V347C2029.55 376.667 2025.22 402.167 2016.55 423.5C2008.22 445.167 1994.72 461.667 1976.05 473C1957.38 484.667 1932.72 490.5 1902.05 490.5ZM1898.55 319C1914.22 319 1927.22 315.333 1937.55 308C1947.88 300.333 1955.72 290.333 1961.05 278C1966.38 265.333 1969.05 251.667 1969.05 237C1969.05 222 1966.38 208.5 1961.05 196.5C1956.05 184.5 1948.38 175 1938.05 168C1928.05 161 1915.05 157.5 1899.05 157.5C1882.05 157.5 1868.55 161.333 1858.55 169C1848.55 176.667 1841.22 186.833 1836.55 199.5C1832.22 211.833 1830.05 225 1830.05 239C1830.05 253.667 1832.38 267.167 1837.05 279.5C1841.72 291.5 1849.05 301.167 1859.05 308.5C1869.05 315.5 1882.22 319 1898.55 319ZM2088.63 370V106.5H2149.63V370H2088.63ZM2119.13 76C2107.47 76 2098.13 72.5 2091.13 65.5C2084.13 58.5 2080.63 49.3333 2080.63 38C2080.63 27 2084.3 18 2091.63 11C2098.97 3.66665 2108.13 -4.76837e-06 2119.13 -4.76837e-06C2129.8 -4.76837e-06 2138.97 3.49999 2146.63 10.5C2154.3 17.5 2158.13 26.6667 2158.13 38C2158.13 49.3333 2154.47 58.5 2147.13 65.5C2139.8 72.5 2130.47 76 2119.13 76ZM2208.75 370V106.5H2265.75L2269.25 140C2276.25 130.667 2284.42 123.333 2293.75 118C2303.08 112.667 2312.92 108.833 2323.25 106.5C2333.58 103.833 2343.25 102.5 2352.25 102.5C2377.25 102.5 2396.92 108 2411.25 119C2425.92 130 2436.25 144.667 2442.25 163C2448.25 181.333 2451.25 201.833 2451.25 224.5V370H2390.25V234.5C2390.25 224.833 2389.58 215.5 2388.25 206.5C2386.92 197.167 2384.25 188.833 2380.25 181.5C2376.58 174.167 2371.25 168.333 2364.25 164C2357.25 159.667 2347.92 157.5 2336.25 157.5C2321.92 157.5 2309.75 161.333 2299.75 169C2289.75 176.667 2282.25 187 2277.25 200C2272.25 212.667 2269.75 227.167 2269.75 243.5V370H2208.75ZM2626.55 373.5C2599.22 373.5 2575.89 367.833 2556.55 356.5C2537.55 345.167 2523.05 329.5 2513.05 309.5C2503.39 289.167 2498.55 265.667 2498.55 239C2498.55 212.333 2503.55 188.833 2513.55 168.5C2523.89 147.833 2538.55 131.667 2557.55 120C2576.89 108.333 2600.05 102.5 2627.05 102.5C2647.05 102.5 2664.55 106.167 2679.55 113.5C2694.55 120.5 2707.05 130.167 2717.05 142.5C2727.39 154.833 2735.05 168.833 2740.05 184.5C2745.05 200.167 2747.39 216.667 2747.05 234C2746.72 238 2746.39 242 2746.05 246C2745.72 249.667 2745.22 253.667 2744.55 258H2559.55C2560.55 269.667 2563.55 280.333 2568.55 290C2573.89 299.667 2581.22 307.333 2590.55 313C2600.22 318.667 2612.22 321.5 2626.55 321.5C2634.89 321.5 2642.89 320.5 2650.55 318.5C2658.22 316.167 2664.89 312.833 2670.55 308.5C2676.55 304.167 2680.55 298.667 2682.55 292H2743.55C2739.22 311 2731.22 326.5 2719.55 338.5C2707.89 350.5 2693.89 359.333 2677.55 365C2661.55 370.667 2644.55 373.5 2626.55 373.5ZM2560.55 212.5H2687.55C2687.55 201.5 2685.05 191.5 2680.05 182.5C2675.05 173.5 2667.89 166.5 2658.55 161.5C2649.55 156.167 2638.55 153.5 2625.55 153.5C2611.55 153.5 2599.89 156.333 2590.55 162C2581.22 167.667 2574.05 175 2569.05 184C2564.05 193 2561.22 202.5 2560.55 212.5Z" fill="black"/>
</svg>
